HIERARCHY
ROOT hip
{
  OFFSET 0 90.174 2.4664
  CHANNELS 6 Xposition Yposition Zposition Zrotation Xrotation Yrotation
  JOINT abdomen
  {
    OFFSET 0 -1.186 -1.5018
    CHANNELS 6 Xposition Yposition Zposition Zrotation Xrotation Yrotation
    JOINT abdomen2
    {
      OFFSET 0 9.964 0.2134
      CHANNELS 6 Xposition Yposition Zposition Zrotation Xrotation Yrotation
      JOINT chest
      {
        OFFSET 0 13.134 -3.2573
        CHANNELS 6 Xposition Yposition Zposition Zrotation Xrotation Yrotation
        JOINT neck
        {
          OFFSET 0 20.686 -1.6905
          CHANNELS 6 Xposition Yposition Zposition Zrotation Xrotation Yrotation
          JOINT head
          {
            OFFSET 0 7.238 -0.1237
            CHANNELS 6 Xposition Yposition Zposition Zrotation Xrotation Yrotation
            End Site
            {
              OFFSET 0 0 0
            }
          }
        }
        JOINT lCollar
        {
          OFFSET 1.7069 20.075 5.0056
          CHANNELS 6 Xposition Yposition Zposition Zrotation Xrotation Yrotation
          JOINT lShldr
          {
            OFFSET 13.6458 -0.047 -4.849
            CHANNELS 6 Xposition Yposition Zposition Zrotation Xrotation Yrotation
            JOINT lForeArm
            {
              OFFSET 28.3255 -0.9759 2.2888
              CHANNELS 6 Xposition Yposition Zposition Zrotation Xrotation Yrotation
              JOINT lHand
              {
                OFFSET 22.1583 -0.53 10.8316
                CHANNELS 6 Xposition Yposition Zposition Zrotation Xrotation Yrotation
                JOINT lThumb1
                {
                  OFFSET 0.786 0.112 2.5817
                  CHANNELS 6 Xposition Yposition Zposition Zrotation Xrotation Yrotation
                  JOINT lThumb2
                  {
                    OFFSET 0.3601 -0.878 4.2331
                    CHANNELS 6 Xposition Yposition Zposition Zrotation Xrotation Yrotation
                    JOINT lThumb2_End
                    {
                      OFFSET 1.8127 -1.216 2.2227
                      CHANNELS 6 Xposition Yposition Zposition Zrotation Xrotation Yrotation
                      End Site
                      {
                        OFFSET 0.0181 -0.0122 0.0222
                      }
                    }
                  }
                }
                JOINT lCarpal1
                {
                  OFFSET 0.9571 1.114 1.7695
                  CHANNELS 6 Xposition Yposition Zposition Zrotation Xrotation Yrotation
                  JOINT lIndex1
                  {
                    OFFSET 4.1246 0.487 4.1451
                    CHANNELS 6 Xposition Yposition Zposition Zrotation Xrotation Yrotation
                    JOINT lIndex2
                    {
                      OFFSET 3.4052 -1.454 2.7682
                      CHANNELS 6 Xposition Yposition Zposition Zrotation Xrotation Yrotation
                      JOINT lIndex2_End
                      {
                        OFFSET 1.4531 -1.795 1.2713
                        CHANNELS 6 Xposition Yposition Zposition Zrotation Xrotation Yrotation
                        End Site
                        {
                          OFFSET 0.0145 -0.0179 0.0127
                        }
                      }
                    }
                  }
                  JOINT lMid1
                  {
                    OFFSET 5.6954 0.21 2.1184
                    CHANNELS 6 Xposition Yposition Zposition Zrotation Xrotation Yrotation
                    JOINT lMid2
                    {
                      OFFSET 3.9766 -1.54 2.3863
                      CHANNELS 6 Xposition Yposition Zposition Zrotation Xrotation Yrotation
                      JOINT lMid2_End
                      {
                        OFFSET 1.4042 -1.926 1.125
                        CHANNELS 6 Xposition Yposition Zposition Zrotation Xrotation Yrotation
                        End Site
                        {
                          OFFSET 0.014 -0.0193 0.0113
                        }
                      }
                    }
                  }
                }
                JOINT lCarpal2
                {
                  OFFSET 2.0956 0.66 -0.3894
                  CHANNELS 6 Xposition Yposition Zposition Zrotation Xrotation Yrotation
                  JOINT lRing1
                  {
                    OFFSET 5.0395 -0.09 2.4971
                    CHANNELS 6 Xposition Yposition Zposition Zrotation Xrotation Yrotation
                    JOINT lRing2
                    {
                      OFFSET 3.7921 -1.552 1.4806
                      CHANNELS 6 Xposition Yposition Zposition Zrotation Xrotation Yrotation
                      JOINT lRing2_End
                      {
                        OFFSET 1.4655 -1.808 0.9609
                        CHANNELS 6 Xposition Yposition Zposition Zrotation Xrotation Yrotation
                        End Site
                        {
                          OFFSET 0.0147 -0.0181 0.0096
                        }
                      }
                    }
                  }
                  JOINT lPinky1
                  {
                    OFFSET 4.9141 -1.269 0.3591
                    CHANNELS 6 Xposition Yposition Zposition Zrotation Xrotation Yrotation
                    JOINT lPinky2
                    {
                      OFFSET 3.1477 -1.685 0.8462
                      CHANNELS 6 Xposition Yposition Zposition Zrotation Xrotation Yrotation
                      JOINT lPinky2_End
                      {
                        OFFSET 0.8055 -1.585 0.7955
                        CHANNELS 6 Xposition Yposition Zposition Zrotation Xrotation Yrotation
                        End Site
                        {
                          OFFSET 0.0081 -0.0158 0.008
                        }
                      }
                    }
                  }
                }
              }
            }
          }
        }
        JOINT rCollar
        {
          OFFSET -1.7069 20.075 5.0056
          CHANNELS 6 Xposition Yposition Zposition Zrotation Xrotation Yrotation
          JOINT rShldr
          {
            OFFSET -13.6458 -0.047 -4.849
            CHANNELS 6 Xposition Yposition Zposition Zrotation Xrotation Yrotation
            JOINT rForeArm
            {
              OFFSET -28.3255 -0.9759 2.2888
              CHANNELS 6 Xposition Yposition Zposition Zrotation Xrotation Yrotation
              JOINT rHand
              {
                OFFSET -22.1583 -0.53 10.8316
                CHANNELS 6 Xposition Yposition Zposition Zrotation Xrotation Yrotation
                JOINT rThumb1
                {
                  OFFSET -0.786 0.112 2.5817
                  CHANNELS 6 Xposition Yposition Zposition Zrotation Xrotation Yrotation
                  JOINT rThumb2
                  {
                    OFFSET -0.3601 -0.878 4.2331
                    CHANNELS 6 Xposition Yposition Zposition Zrotation Xrotation Yrotation
                    JOINT rThumb2_End
                    {
                      OFFSET -1.8127 -1.216 2.2227
                      CHANNELS 6 Xposition Yposition Zposition Zrotation Xrotation Yrotation
                      End Site
                      {
                        OFFSET -0.0181 -0.0122 0.0222
                      }
                    }
                  }
                }
                JOINT rCarpal1
                {
                  OFFSET -0.9571 1.114 1.7695
                  CHANNELS 6 Xposition Yposition Zposition Zrotation Xrotation Yrotation
                  JOINT rIndex1
                  {
                    OFFSET -4.1246 0.487 4.1451
                    CHANNELS 6 Xposition Yposition Zposition Zrotation Xrotation Yrotation
                    JOINT rIndex2
                    {
                      OFFSET -3.4052 -1.454 2.7682
                      CHANNELS 6 Xposition Yposition Zposition Zrotation Xrotation Yrotation
                      JOINT rIndex2_End
                      {
                        OFFSET -1.4531 -1.795 1.2713
                        CHANNELS 6 Xposition Yposition Zposition Zrotation Xrotation Yrotation
                        End Site
                        {
                          OFFSET -0.0145 -0.018 0.0127
                        }
                      }
                    }
                  }
                  JOINT rMid1
                  {
                    OFFSET -5.6954 0.21 2.1184
                    CHANNELS 6 Xposition Yposition Zposition Zrotation Xrotation Yrotation
                    JOINT rMid2
                    {
                      OFFSET -3.9766 -1.54 2.3863
                      CHANNELS 6 Xposition Yposition Zposition Zrotation Xrotation Yrotation
                      JOINT rMid2_End
                      {
                        OFFSET -1.4042 -1.926 1.125
                        CHANNELS 6 Xposition Yposition Zposition Zrotation Xrotation Yrotation
                        End Site
                        {
                          OFFSET -0.014 -0.0193 0.0113
                        }
                      }
                    }
                  }
                }
                JOINT rCarpal2
                {
                  OFFSET -2.0956 0.66 -0.3894
                  CHANNELS 6 Xposition Yposition Zposition Zrotation Xrotation Yrotation
                  JOINT rRing1
                  {
                    OFFSET -5.0395 -0.09 2.4971
                    CHANNELS 6 Xposition Yposition Zposition Zrotation Xrotation Yrotation
                    JOINT rRing2
                    {
                      OFFSET -3.7921 -1.552 1.4806
                      CHANNELS 6 Xposition Yposition Zposition Zrotation Xrotation Yrotation
                      JOINT rRing2_End
                      {
                        OFFSET -1.4655 -1.808 0.9609
                        CHANNELS 6 Xposition Yposition Zposition Zrotation Xrotation Yrotation
                        End Site
                        {
                          OFFSET -0.0147 -0.0181 0.0096
                        }
                      }
                    }
                  }
                  JOINT rPinky1
                  {
                    OFFSET -4.9141 -1.269 0.3592
                    CHANNELS 6 Xposition Yposition Zposition Zrotation Xrotation Yrotation
                    JOINT rPinky2
                    {
                      OFFSET -3.1477 -1.685 0.8462
                      CHANNELS 6 Xposition Yposition Zposition Zrotation Xrotation Yrotation
                      JOINT rPinky2_End
                      {
                        OFFSET -0.8055 -1.585 0.7955
                        CHANNELS 6 Xposition Yposition Zposition Zrotation Xrotation Yrotation
                        End Site
                        {
                          OFFSET -0.0081 -0.0158 0.008
                        }
                      }
                    }
                  }
                }
              }
            }
          }
        }
      }
    }
  }
  JOINT lThigh
  {
    OFFSET 8.367 -8.2066 0.5982
    CHANNELS 6 Xposition Yposition Zposition Zrotation Xrotation Yrotation
    JOINT lShin
    {
      OFFSET 2.1923 -43.463 -0.4932
      CHANNELS 6 Xposition Yposition Zposition Zrotation Xrotation Yrotation
      JOINT lFoot
      {
        OFFSET 0.7333 -45.8593 -2.6451
        CHANNELS 6 Xposition Yposition Zposition Zrotation Xrotation Yrotation
        End Site
        {
          OFFSET 2.6618 -4.2699 12.3931
        }
      }
    }
  }
  JOINT rThigh
  {
    OFFSET -8.367 -8.2066 0.5982
    CHANNELS 6 Xposition Yposition Zposition Zrotation Xrotation Yrotation
    JOINT rShin
    {
      OFFSET -2.1923 -43.463 -0.4931
      CHANNELS 6 Xposition Yposition Zposition Zrotation Xrotation Yrotation
      JOINT rFoot
      {
        OFFSET -0.7333 -45.8593 -2.6451
        CHANNELS 6 Xposition Yposition Zposition Zrotation Xrotation Yrotation
        End Site
        {
          OFFSET -2.6618 -4.2699 12.3931
        }
      }
    }
  }
}
MOTION
Frames:	4
Frame Time:	0.0333333
-17.6267 87.3028 -57.4107 0.634677 9.82306 -57.381 -1.42109e-014 -1.186 -1.5018 0.641307 2.30128 3.3624 1.42109e-014 9.964 0.2134 1.14771 4.63612 6.70703 0 13.134 -3.2573 1.14771 4.63612 6.70701 0 20.686 -1.6905 -2.80979 9.41457 6.50896 0 7.238 -0.1237 -2.96667e-006 -6.35006e-008 8.56134 1.7069 20.075 5.0056 -23.9699 -1.40299 3.98908 13.6458 -0.047 -4.849 -23.5003 -5.9295 13.7415 28.3255 -0.9759 2.2888 -9.31274 21.9188 -33.4095 22.1583 -0.53 10.8316 -6.509 2.56967 0.0298586 0.786 0.112 2.5817 1.18275e-006 1.70682e-006 -2.39895e-006 0.3601 -0.878 4.2331 1.18275e-006 1.70682e-006 -2.39895e-006 1.8127 -1.216 2.2227 1.18275e-006 1.70682e-006 -2.39895e-006 0.9571 1.114 1.7695 4.77083e-015 -3.18055e-015 7.95139e-016 4.1246 0.487 4.1451 1.18275e-006 1.70682e-006 -2.39895e-006 3.4052 -1.454 2.7682 1.18275e-006 1.70682e-006 -2.39895e-006 1.4531 -1.795 1.2713 1.18275e-006 1.70682e-006 -2.39895e-006 5.6954 0.21 2.1184 1.18275e-006 1.70682e-006 -2.39895e-006 3.9766 -1.54 2.3863 1.18275e-006 1.70682e-006 -2.39895e-006 1.4042 -1.926 1.125 1.18275e-006 1.70682e-006 -2.39895e-006 2.0956 0.66 -0.3894 4.77083e-015 -3.18055e-015 7.95139e-016 5.0395 -0.09 2.4971 1.18275e-006 1.70682e-006 -2.39895e-006 3.7921 -1.552 1.4806 1.18275e-006 1.70682e-006 -2.39895e-006 1.4655 -1.808 0.9609 1.18275e-006 1.70682e-006 -2.39895e-006 4.9141 -1.269 0.3591 1.18275e-006 1.70682e-006 -2.39895e-006 3.1477 -1.685 0.8462 1.18275e-006 1.70682e-006 -2.39895e-006 0.8055 -1.585 0.7955 1.18275e-006 1.70682e-006 -2.39895e-006 -1.7069 20.075 5.0056 18.8117 -5.68821 17.8711 -13.6458 -0.047 -4.849 -1.65495 -46.6883 8.7191 -28.3255 -0.9759 2.2888 2.08167 -8.34802 -0.139219 -22.1583 -0.53 10.8316 -15.9756 -5.76943 -12.9914 -0.786 0.112 2.5817 6.98105e-007 3.0712e-007 -3.81914e-007 -0.3601 -0.878 4.2331 6.98105e-007 3.0712e-007 -3.81914e-007 -1.8127 -1.216 2.2227 6.98105e-007 3.0712e-007 -3.81914e-007 -0.9571 1.114 1.7695 -3.18055e-015 -4.77083e-015 1.59028e-015 -4.1246 0.487 4.1451 6.98105e-007 3.0712e-007 -3.81914e-007 -3.4052 -1.454 2.7682 6.98105e-007 3.0712e-007 -3.81914e-007 -1.4531 -1.795 1.2713 6.98105e-007 3.0712e-007 -3.81914e-007 -5.6954 0.21 2.1184 6.98105e-007 3.0712e-007 -3.81914e-007 -3.9766 -1.54 2.3863 6.98105e-007 3.0712e-007 -3.81914e-007 -1.4042 -1.926 1.125 6.98105e-007 3.0712e-007 -3.81914e-007 -2.0956 0.66 -0.3894 -3.18055e-015 -4.77083e-015 1.59028e-015 -5.0395 -0.09 2.4971 6.98105e-007 3.0712e-007 -3.81914e-007 -3.7921 -1.552 1.4806 6.98105e-007 3.0712e-007 -3.81914e-007 -1.4655 -1.808 0.9609 6.98105e-007 3.0712e-007 -3.81914e-007 -4.9141 -1.269 0.3592 6.98105e-007 3.0712e-007 -3.81914e-007 -3.1477 -1.685 0.8462 6.98105e-007 3.0712e-007 -3.81914e-007 -0.8055 -1.585 0.7955 6.98105e-007 3.0712e-007 -3.81914e-007 8.367 -8.2066 0.5982 18.9019 -0.22004 5.54679 2.1923 -43.463 -0.4932 -10.396 9.03824 2.41776 0.7333 -45.8593 -2.6451 -10.7939 -5.91563 36.7588 -8.367 -8.2066 0.5982 3.47019 -12.0642 -13.4186 -2.1923 -43.463 -0.4931 -1.54556 16.0099 -1.14037 -0.7333 -45.8593 -2.6451 -13.9305 -1.34141 0.972833 
-16.8077 86.8726 -56.7946 0.595093 11.4696 -55.9259 0 -1.186 -1.5018 0.707659 3.2973 4.28999 0 9.964 0.2134 1.16874 6.63819 8.56035 0 13.134 -3.2573 1.16874 6.6382 8.56034 0 20.686 -1.6905 -2.4527 8.93963 4.98342 0 7.238 -0.1237 -1.91583e-006 5.70417e-006 8.42859 1.7069 20.075 5.0056 -23.8281 -1.39918 4.01849 13.6458 -0.047 -4.849 -23.1557 -5.87276 14.0615 28.3255 -0.9759 2.2888 -12.2606 24.0645 -31.2628 22.1583 -0.53 10.8316 -6.50896 2.56967 0.029883 0.786 0.112 2.5817 2.5842e-015 -1.90833e-014 4.47266e-015 0.3601 -0.878 4.2331 2.5842e-015 -1.27222e-014 -1.68967e-015 1.8127 -1.216 2.2227 1.19271e-015 -9.54166e-015 9.93923e-016 0.9571 1.114 1.7695 2.38542e-015 -9.54166e-015 4.57205e-015 4.1246 0.487 4.1451 5.76476e-015 -9.54166e-015 1.28216e-014 3.4052 -1.454 2.7682 2.38542e-015 -3.18055e-015 -9.93923e-016 1.4531 -1.795 1.2713 7.95139e-016 -6.36111e-015 -1.2921e-015 5.6954 0.21 2.1184 5.76476e-015 -9.54166e-015 1.28216e-014 3.9766 -1.54 2.3863 2.38542e-015 -3.18055e-015 -9.93923e-016 1.4042 -1.926 1.125 7.95139e-016 -6.36111e-015 -1.2921e-015 2.0956 0.66 -0.3894 2.38542e-015 -9.54166e-015 4.57205e-015 5.0395 -0.09 2.4971 5.76476e-015 -9.54166e-015 1.28216e-014 3.7921 -1.552 1.4806 2.38542e-015 -3.18055e-015 -9.93923e-016 1.4655 -1.808 0.9609 7.95139e-016 -6.36111e-015 -1.2921e-015 4.9141 -1.269 0.3591 5.76476e-015 -9.54166e-015 1.28216e-014 3.1477 -1.685 0.8462 2.38542e-015 -3.18055e-015 -9.93923e-016 0.8055 -1.585 0.7955 7.95139e-016 -6.36111e-015 -1.2921e-015 -1.7069 20.075 5.0056 18.5625 -5.85619 18.946 -13.6458 -0.047 -4.849 7.29605 -45.3973 16.0538 -28.3255 -0.9759 2.2888 1.60604 -6.09768 -2.40046 -22.1583 -0.53 10.8316 -14.709 -3.24175 -11.8039 -0.786 0.112 2.5817 -9.54166e-015 -3.18055e-015 -3.18055e-015 -0.3601 -0.878 4.2331 -6.36111e-015 3.18055e-015 -1.27222e-014 -1.8127 -1.216 2.2227 -1.27222e-014 -3.18055e-015 -1.59028e-014 -0.9571 1.114 1.7695 -3.18055e-015 -3.18055e-015 6.36111e-015 -4.1246 0.487 4.1451 3.18055e-015 -9.54166e-015 1.59028e-014 -3.4052 -1.454 2.7682 -9.54166e-015 -3.18055e-015 -1.27222e-014 -1.4531 -1.795 1.2713 -6.36111e-015 6.36111e-015 -3.18055e-015 -5.6954 0.21 2.1184 3.18055e-015 -9.54166e-015 1.59028e-014 -3.9766 -1.54 2.3863 -9.54166e-015 -3.18055e-015 -1.27222e-014 -1.4042 -1.926 1.125 -6.36111e-015 6.36111e-015 -3.18055e-015 -2.0956 0.66 -0.3894 -3.18055e-015 -3.18055e-015 6.36111e-015 -5.0395 -0.09 2.4971 3.18055e-015 -9.54166e-015 1.59028e-014 -3.7921 -1.552 1.4806 -9.54166e-015 -3.18055e-015 -1.27222e-014 -1.4655 -1.808 0.9609 -6.36111e-015 6.36111e-015 -3.18055e-015 -4.9141 -1.269 0.3592 3.18055e-015 -9.54166e-015 1.59028e-014 -3.1477 -1.685 0.8462 -9.54166e-015 -3.18055e-015 -1.27222e-014 -0.8055 -1.585 0.7955 -6.36111e-015 6.36111e-015 -3.18055e-015 8.367 -8.2066 0.5982 20.3274 -2.72948 6.94671 2.1923 -43.463 -0.4932 -10.7195 11.3155 2.57208 0.7333 -45.8593 -2.6451 -9.17972 -8.00918 34.0957 -8.367 -8.2066 0.5982 4.8689 -14.4661 -13.2341 -2.1923 -43.463 -0.4931 -2.74381 18.6988 -0.991824 -0.7333 -45.8593 -2.6451 -13.5971 -1.29979 -0.523404 
-15.9874 86.4371 -56.1826 0.51246 13.1128 -54.462 -1.42109e-014 -1.186 -1.5018 0.765489 4.29077 5.22504 0 9.964 0.2134 1.13949 8.63329 10.4366 0 13.134 -3.2573 1.13949 8.63328 10.4366 0 20.686 -1.6905 -2.1087 8.45497 3.46104 0 7.238 -0.1237 6.65722e-007 7.51341e-006 8.29585 1.7069 20.075 5.0056 -23.6864 -1.39532 4.04782 13.6458 -0.047 -4.849 -22.8115 -5.81415 14.3811 28.3255 -0.9759 2.2888 -15.3404 26.0993 -28.9638 22.1583 -0.53 10.8316 -6.5089 2.56964 0.0299364 0.786 0.112 2.5817 7.95139e-016 6.36111e-015 -5.56597e-015 0.3601 -0.878 4.2331 7.95139e-016 0 2.38542e-015 1.8127 -1.216 2.2227 -7.95139e-016 6.36111e-015 -3.18055e-015 0.9571 1.114 1.7695 1.59028e-015 6.36111e-015 -3.97569e-015 4.1246 0.487 4.1451 -7.95139e-016 0 -2.38542e-015 3.4052 -1.454 2.7682 7.95139e-016 0 -1.59028e-015 1.4531 -1.795 1.2713 -7.95139e-016 6.36111e-015 -6.36111e-015 5.6954 0.21 2.1184 -7.95139e-016 0 -2.38542e-015 3.9766 -1.54 2.3863 7.95139e-016 0 -1.59028e-015 1.4042 -1.926 1.125 -7.95139e-016 6.36111e-015 -6.36111e-015 2.0956 0.66 -0.3894 1.59028e-015 6.36111e-015 -3.97569e-015 5.0395 -0.09 2.4971 -7.95139e-016 0 -2.38542e-015 3.7921 -1.552 1.4806 7.95139e-016 0 -1.59028e-015 1.4655 -1.808 0.9609 -7.95139e-016 6.36111e-015 -6.36111e-015 4.9141 -1.269 0.3591 -7.95139e-016 0 -2.38542e-015 3.1477 -1.685 0.8462 7.95139e-016 0 -1.59028e-015 0.8055 -1.585 0.7955 -7.95139e-016 6.36111e-015 -6.36111e-015 -1.7069 20.075 5.0056 18.3165 -6.02882 20.0203 -13.6458 -0.047 -4.849 16.2306 -44.4393 23.3523 -28.3255 -0.9759 2.2888 1.75702 -3.85715 -4.46438 -22.1583 -0.53 10.8316 -13.4986 -0.692593 -10.6758 -0.786 0.112 2.5817 -3.18055e-015 -3.18055e-015 1.59028e-015 -0.3601 -0.878 4.2331 -2.43209e-006 2.61955e-006 -1.2852e-007 -1.8127 -1.216 2.2227 7.95139e-015 0 3.18055e-015 -0.9571 1.114 1.7695 2.64834e-031 -3.18055e-015 4.77083e-015 -4.1246 0.487 4.1451 -9.54166e-015 -6.36111e-015 4.77083e-015 -3.4052 -1.454 2.7682 -2.43209e-006 2.61955e-006 -1.2852e-007 -1.4531 -1.795 1.2713 7.95139e-015 0 -3.18055e-015 -5.6954 0.21 2.1184 -9.54166e-015 -6.36111e-015 4.77083e-015 -3.9766 -1.54 2.3863 -2.43209e-006 2.61955e-006 -1.2852e-007 -1.4042 -1.926 1.125 7.95139e-015 0 -3.18055e-015 -2.0956 0.66 -0.3894 2.64834e-031 -3.18055e-015 4.77083e-015 -5.0395 -0.09 2.4971 -9.54166e-015 -6.36111e-015 4.77083e-015 -3.7921 -1.552 1.4806 -2.43209e-006 2.61955e-006 -1.2852e-007 -1.4655 -1.808 0.9609 7.95139e-015 0 -3.18055e-015 -4.9141 -1.269 0.3592 -9.54166e-015 -6.36111e-015 4.77083e-015 -3.1477 -1.685 0.8462 -2.43209e-006 2.61955e-006 -1.2852e-007 -0.8055 -1.585 0.7955 7.95139e-015 0 -3.18055e-015 8.367 -8.2066 0.5982 21.7806 -5.30812 8.42356 2.1923 -43.463 -0.4932 -10.9699 13.7788 2.72547 0.7333 -45.8593 -2.6451 -7.69953 -10.2753 31.4663 -8.367 -8.2066 0.5982 6.32871 -16.8185 -12.9891 -2.1923 -43.463 -0.4931 -4.02485 21.2869 -0.759464 -0.7333 -45.8593 -2.6451 -13.2359 -1.22093 -2.01642 
-15.1594 85.9644 -55.5766 0.386135 14.7503 -52.988 0 -1.186 -1.5018 0.814722 5.27957 6.16626 0 9.964 0.2134 1.05916 10.616 12.3363 -7.10543e-015 13.134 -3.2573 1.05916 10.616 12.3362 7.10543e-015 20.686 -1.6905 -1.77827 7.96085 1.94243 -3.55271e-015 7.238 -0.1237 -7.91427e-007 2.0594e-006 8.1631 1.7069 20.075 5.0056 -23.5446 -1.39137 4.07718 13.6458 -0.047 -4.849 -22.4676 -5.7536 14.7002 28.3255 -0.9759 2.2888 -18.5518 28.0093 -26.5136 22.1583 -0.53 10.8316 -6.50884 2.5696 0.0299871 0.786 0.112 2.5817 7.2889e-007 8.91e-007 -1.24776e-006 0.3601 -0.878 4.2331 -7.2889e-007 -8.91e-007 1.24776e-006 1.8127 -1.216 2.2227 7.2889e-007 8.91e-007 -1.24776e-006 0.9571 1.114 1.7695 -4.77083e-015 -6.36111e-015 1.59028e-015 4.1246 0.487 4.1451 7.2889e-007 8.91e-007 -1.24776e-006 3.4052 -1.454 2.7682 -7.2889e-007 -8.91e-007 1.24776e-006 1.4531 -1.795 1.2713 7.2889e-007 8.91e-007 -1.24776e-006 5.6954 0.21 2.1184 7.2889e-007 8.91e-007 -1.24776e-006 3.9766 -1.54 2.3863 -7.2889e-007 -8.91e-007 1.24776e-006 1.4042 -1.926 1.125 7.2889e-007 8.91e-007 -1.24776e-006 2.0956 0.66 -0.3894 -4.77083e-015 -6.36111e-015 1.59028e-015 5.0395 -0.09 2.4971 7.2889e-007 8.91e-007 -1.24776e-006 3.7921 -1.552 1.4806 -7.2889e-007 -8.91e-007 1.24776e-006 1.4655 -1.808 0.9609 7.2889e-007 8.91e-007 -1.24776e-006 4.9141 -1.269 0.3591 7.2889e-007 8.91e-007 -1.24776e-006 3.1477 -1.685 0.8462 -7.2889e-007 -8.91e-007 1.24776e-006 0.8055 -1.585 0.7955 7.2889e-007 8.91e-007 -1.24776e-006 -1.7069 20.075 5.0056 18.0738 -6.2059 21.0939 -13.6458 -0.047 -4.849 24.7597 -42.7015 30.2237 -28.3255 -0.9759 2.2888 1.9889 -1.61869 -6.53479 -22.1583 -0.53 10.8316 -12.3412 1.87213 -9.60426 -0.786 0.112 2.5817 4.77083e-015 -9.54166e-015 -0 -0.3601 -0.878 4.2331 -2.04827e-006 1.4725e-006 1.40139e-006 -1.8127 -1.216 2.2227 4.77083e-015 6.36111e-015 -0 -0.9571 1.114 1.7695 3.97569e-015 -6.36111e-015 -1.59028e-015 -4.1246 0.487 4.1451 -1.03368e-014 0 1.59028e-014 -3.4052 -1.454 2.7682 -2.04827e-006 1.4725e-006 1.40139e-006 -1.4531 -1.795 1.2713 -3.97569e-015 0 3.18055e-015 -5.6954 0.21 2.1184 -1.03368e-014 0 1.59028e-014 -3.9766 -1.54 2.3863 -2.04827e-006 1.4725e-006 1.40139e-006 -1.4042 -1.926 1.125 -3.97569e-015 0 3.18055e-015 -2.0956 0.66 -0.3894 3.97569e-015 -6.36111e-015 -1.59028e-015 -5.0395 -0.09 2.4971 -1.03368e-014 0 1.59028e-014 -3.7921 -1.552 1.4806 -2.04827e-006 1.4725e-006 1.40139e-006 -1.4655 -1.808 0.9609 -3.97569e-015 0 3.18055e-015 -4.9141 -1.269 0.3592 -1.03368e-014 0 1.59028e-014 -3.1477 -1.685 0.8462 -2.04827e-006 1.4725e-006 1.40139e-006 -0.8055 -1.585 0.7955 -3.97569e-015 0 3.18055e-015 8.367 -8.2066 0.5982 23.4187 -7.92526 9.97069 2.1923 -43.463 -0.4932 -11.4495 16.4144 2.94291 0.7333 -45.8593 -2.6451 -6.21771 -12.7039 28.8792 -8.367 -8.2066 0.5982 7.86087 -19.2092 -12.6766 -2.1923 -43.463 -0.4931 -5.45942 23.9359 -0.422739 -0.7333 -45.8593 -2.6451 -12.8152 -1.18285 -3.51522 
